#N canvas 726 194 450 300 10;
#X obj 39 236 sendOSC;
#X floatatom 39 263 5 0 0 0 - - -;
#X msg 39 136 disconnect;
#X floatatom 93 265 5 0 0 0 - - -;
#X obj 148 43 MouseState;
#X obj 148 86 tgl 15 0 empty empty empty 0 -6 0 8 -262144 -1 -1 0 1
;
#X floatatom 190 65 5 0 0 0 - - -;
#X obj 190 85 moses 0;
#X msg 148 7 poll;
#X msg 250 175 send /bang RIGHT;
#X msg 190 156 send /bang LEFT;
#X obj 17 75 print rcvOSC;
#X obj 17 23 dumpOSC 9999;
#X obj 45 48 s rcvOSC;
#X obj 73 206 spigot;
#X msg 73 166 1;
#X msg 103 166 0;
#X obj 123 206 spigot;
#X msg 21 110 connect localhost 12000;
#X obj 190 115 f;
#X obj 250 115 f;
#X obj 310 85 metro 50;
#X obj 190 135 change;
#X obj 250 135 change;
#X obj 135 241 print;
#X connect 0 0 1 0;
#X connect 0 1 3 0;
#X connect 2 0 0 0;
#X connect 2 0 16 0;
#X connect 4 0 5 0;
#X connect 4 3 6 0;
#X connect 6 0 7 0;
#X connect 7 0 19 1;
#X connect 7 1 20 1;
#X connect 8 0 4 0;
#X connect 9 0 17 0;
#X connect 10 0 14 0;
#X connect 12 0 11 0;
#X connect 12 0 13 0;
#X connect 14 0 0 0;
#X connect 14 0 24 0;
#X connect 15 0 14 1;
#X connect 15 0 17 1;
#X connect 15 0 21 0;
#X connect 16 0 14 1;
#X connect 16 0 17 1;
#X connect 16 0 21 0;
#X connect 17 0 0 0;
#X connect 17 0 24 0;
#X connect 18 0 0 0;
#X connect 18 0 15 0;
#X connect 19 0 22 0;
#X connect 20 0 23 0;
#X connect 21 0 20 0;
#X connect 21 0 19 0;
#X connect 22 0 10 0;
#X connect 23 0 9 0;
